<?xml version="1.0" standalone="no"?><!DOCTYPE svg PUBLIC "-//W3C//DTD SVG 1.1//EN" "http://www.w3.org/Graphics/SVG/1.1/DTD/svg11.dtd"><svg class="icon" width="16px" height="16.00px" viewBox="0 0 1024 1024" version="1.1" xmlns="http://www.w3.org/2000/svg"><path fill="#333333" d="M740.594032 609.704404C767.080986 591.319289 791.503142 571.647106 813.326404 551.962476 820.981341 545.057706 827.775163 538.633674 833.638974 532.849563 837.205822 529.331197 839.701378 526.773837 841.055998 525.336773L855.00508 510.538733 838.813274 498.234901C837.338458 497.114218 834.620588 495.113162 830.744382 492.357184 824.367027 487.822892 817.00256 482.786147 808.735188 477.372391 785.173281 461.943252 759.02664 446.526514 730.957979 432.127303 657.140553 394.258996 583.446535 370.058725 513.830795 366.234478 507.539591 365.888879 501.302272 365.714286 495.12088 365.714286 423.459719 365.714286 352.048216 394.864748 283.392815 443.959231 279.480429 446.756921 275.597315 449.607431 271.744389 452.507685 246.864821 471.235547 224.180191 491.271334 204.103073 511.321248 197.058689 518.356088 190.832623 524.902741 185.478777 530.799739 182.216424 534.393061 179.937792 537.01065 178.697621 538.490928L166.818234 552.670263 181.133691 564.385256C182.503158 565.505953 185.013117 567.490079 188.593693 570.214585 194.47038 574.68623 201.276114 579.650403 208.941552 584.984031 230.773971 600.175077 255.196652 615.350475 281.66556 629.523046 357.825607 670.302349 435.391523 694.857143 510.232143 694.857143 586.000333 694.857143 664.078444 662.815378 740.594032 609.704404ZM298.928555 597.282414C273.783478 583.818679 250.552479 569.383749 229.829232 554.964467 222.600187 549.93448 216.212581 545.275297 210.739285 541.110597 207.509871 538.653295 205.337623 536.93613 204.294881 536.082806L206.73095 561.977134C207.666876 560.860005 209.627738 558.607455 212.555576 555.382587 217.518717 549.91593 223.334938 543.800225 229.945441 537.198679 248.882287 518.287492 270.309633 499.362178 293.738462 481.726346 297.355097 479.003957 300.997771 476.32995 304.665278 473.707369 367.664079 428.657839 432.269334 402.285714 495.12088 402.285714 500.626458 402.285714 506.19514 402.441591 511.824817 402.75085 575.531046 406.250466 644.617931 428.937807 714.265214 464.666833 741.116127 478.441339 766.164868 493.210727 788.70033 507.967714 796.567036 513.119102 803.546962 517.892848 809.552587 522.162842 813.106171 524.689436 815.513218 526.461646 816.686727 527.353371L814.444001 500.251499C813.386412 501.373455 811.19976 503.614259 807.956619 506.81332 802.470448 512.224923 796.070928 518.276114 788.831384 524.8062 768.098979 543.506873 744.867456 562.219994 719.740425 579.66116 648.787483 628.910994 577.208318 658.285714 510.232143 658.285714 442.328397 658.285714 370.237038 635.463984 298.928555 597.282414ZM507.714286 640C575.26296 640 630.021978 580.677729 630.021978 507.5 630.021978 434.322271 575.26296 375 507.714286 375 440.165612 375 385.406594 434.322271 385.406594 507.5 385.406594 580.677729 440.165612 640 507.714286 640ZM421.339034 490.080187 451.630373 448.4358C457.592251 440.23944 469.916487 435.769503 479.302471 438.494051L479.302471 438.494051C488.623473 441.199735 491.316182 450.063969 485.409115 458.16626L455.186278 499.620702 462.07068 552.524835C463.425655 562.937315 457.032898 569.203771 447.646912 566.479223L447.646912 566.479223C438.32591 563.773539 429.650885 553.097388 428.291937 542.794375L421.339034 490.080187" /></svg>