<?xml version="1.0" standalone="no"?><!DOCTYPE svg PUBLIC "-//W3C//DTD SVG 1.1//EN" "http://www.w3.org/Graphics/SVG/1.1/DTD/svg11.dtd"><svg class="icon" width="16px" height="16.00px" viewBox="0 0 1024 1024" version="1.1" xmlns="http://www.w3.org/2000/svg"><path d="M956.6 362.8c-16.2-48.3-40-93.3-70.9-133.9l55.5-96.2c6.9-12 8.8-26 5.2-39.5-3.6-13.4-12.2-24.6-24.2-31.6-7.9-4.6-16.9-7-26-7-18.5 0-35.8 10-45.1 26L799 171.1c-0.1 0.2-0.2 0.4-0.4 0.6l-32.9 57-0.3 0.6-182.7 316.4c-6.9 12-8.8 26-5.2 39.5 3.6 13.4 12.2 24.6 24.2 31.6 7.9 4.6 16.9 7 26 7 18.5 0 35.8-10 45.1-26l155.1-268.6c35 60.1 51.8 128.4 48.7 199.4-1.9 43.8-12.6 87.1-31.8 128.6-16.9 36.7-39.8 70.4-67.9 100.5H666.6c-3.1-21.5-13.7-40.9-30.3-55.3-16.5-14.3-37.6-22.2-59.3-22.2-2.2 0-4.4 0.1-6.5 0.2-24.2 1.7-46.2 12.7-62.1 31-15.9 18.3-23.7 41.7-22 65.9 1.9 27.1 24.7 48.3 51.8 48.3 1.2 0 2.5 0 3.7-0.1 3.2-0.2 6.4-0.8 9.5-1.6 1.3 2.9 2.9 5.7 4.7 8.4 9.7 14 25.7 22.4 42.8 22.4 10.6 0 20.8-3.2 29.6-9.3 22.6-15.7 36.8-40.9 38.8-67.9h89.4c-29.8 27.7-63.2 50.2-99.4 67-41.5 19.2-84.7 29.9-128.5 31.9-5.6 0.2-11.2 0.4-16.8 0.4-42.3 0-83.7-7.2-123.1-21.3-0.7-0.3-3-1.1-4.1-4.1-1.2-3.3 0.1-5.5 0.5-6.3l56.5-97.9c38.2-66.2 15.4-151.1-50.7-189.3-21-12.2-45-18.6-69.2-18.6-49.4 0-95.4 26.5-120 69.3l-26.1 45.2c-16.6-39.1-26-80.6-28.2-123.4-2.5-50.9 5.3-100.5 23.3-147.6 17.3-45.4 43.2-86.4 77-121.9 33.9-35.6 73.7-63.7 118.4-83.3C412.4 157.3 461.4 147 512 147c7.4 0 14.9 0.2 22.3 0.7 48.1 2.9 94.4 15 137.5 36.1 2.9 1.4 5.8 2.9 8.7 4.4 7.5 3.9 15.8 6 24.2 6 18.5 0 35.7-9.9 45-25.9l0.1-0.1c7.1-12.4 8.9-26.7 4.9-40.4-3.9-13.6-13.4-25.1-25.9-31.6C670.1 65.5 606.8 48 540.6 44c-9.5-0.6-19.1-0.9-28.5-0.9-65.1 0-128.2 13.3-187.6 39.4-57.3 25.2-108.4 61.2-151.9 106.8-43.3 45.5-76.6 98.2-98.8 156.4-23.2 60.6-33.3 124.5-30 189.9 3 60.2 17.3 118.4 42.5 172.9 16.1 34.9 50.1 56.6 88.7 56.6 35.5 0 67.2-18.3 85-49.1l32-55.4c6.2-10.7 17.6-17.3 30-17.3 5.8 0 11.6 1.5 16.8 4.4 7.9 4.4 13.6 11.8 16.1 20.8 2.6 9.3 1.4 19.1-3.4 27.4l-56.1 97.2c-16.6 28.7-19.5 63-8.1 94.1 11.4 31 35.7 55.1 66.7 66.2 50.7 18.2 103.9 27.4 158.2 27.4 7.1 0 14.3-0.2 21.4-0.5 57.4-2.6 113.8-16.5 167.6-41.4 51.8-24 98.9-57 140-98.2s74.1-88.3 98.1-140.1c24.9-53.8 38.8-110.2 41.3-167.6 2.3-58.3-5.7-115.6-24-170.2z" fill="#E1ECFF" /><path d="M580.7 776.4c-14.5 10.1-18.2 30-8.1 44.5 6.2 9 16.2 13.8 26.3 13.8 6.3 0 12.6-1.8 18.2-5.7 20.5-14.2 32.1-38.4 30.3-63.2-1.3-18.8-9.9-36-24.2-48.4-14.3-12.4-32.5-18.5-51.4-17.1-18.8 1.3-36 9.9-48.4 24.2-12.4 14.3-18.5 32.5-17.1 51.4 1.2 16.9 15.2 29.7 31.9 29.7 0.8 0 1.5 0 2.3-0.1 17.6-1.2 30.9-16.6 29.7-34.2-0.2-2.3 0.8-3.9 1.6-4.9 0.8-1 2.3-2.1 4.6-2.3 2.3-0.1 3.9 0.8 4.9 1.6 1 0.8 2.1 2.3 2.3 4.6 0.3 3.6-2.1 5.6-2.9 6.1z" fill="#B08FEF" /><path d="M861.6 230.5l62.3-107.9c8.8-15.3 3.6-34.9-11.7-43.7-15.3-8.8-34.9-3.6-43.7 11.7l-52.6 91.1-32.9 57-183 317c-8.8 15.3-3.6 34.9 11.7 43.7 15.3 8.8 34.9 3.6 43.7-11.7l171.5-297c48.9 69.3 73.3 152.4 69.6 238.7-2 46.4-13.3 92.2-33.6 136.1-19.8 42.8-47.1 81.8-81.2 116s-73.1 61.5-115.9 81.3c-43.8 20.3-89.6 31.7-136.1 33.7-5.9 0.3-11.8 0.4-17.7 0.4-44.6 0-88.3-7.5-129.8-22.4-10.3-3.7-14.5-11.7-16.2-16.1-1.6-4.5-3.6-13.5 2-23.1l56.5-97.9c32.7-56.6 13.2-129.3-43.4-161.9-18-10.4-38.5-15.9-59.2-15.9-42.2 0-81.6 22.7-102.7 59.3l-32 55.4c-2.7 4.7-6.8 7.1-12.2 7.1-4 0-9.5-1.4-12.5-7.8-20.7-44.7-32.4-92.4-34.9-141.8-2.7-53.7 5.6-106.1 24.6-155.7 18.3-47.8 45.6-91.1 81.2-128.5 35.7-37.6 77.7-67.1 124.9-87.9 48.7-21.4 100.4-32.3 153.8-32.3 7.8 0 15.7 0.2 23.5 0.7 50.8 3.1 99.6 15.9 145.1 38.1 3.1 1.5 6.2 3.1 9.2 4.6 15.2 8 34 2.7 42.6-12.2l0.1-0.1c9.1-15.8 3.2-35.9-13-44.3-54.4-28.4-115.4-46-180.1-49.9-9.2-0.6-18.3-0.8-27.3-0.8C258.1 63.5 51 277.7 63.9 535.1c2.9 58.9 17.2 114.7 40.7 165.5 13.8 29.8 42.1 45 70.6 45 26.2 0 52.5-12.9 67.6-39.1l32-55.4c10.1-17.5 28.4-27.3 47.3-27.3 9 0 18.1 2.2 26.5 6.9 26.6 14.8 35.5 49.3 20.2 75.6l-56.1 97.2c-28.4 49.2-5.5 112.3 48 131.5 47.3 17 98.3 26.2 151.4 26.2 6.8 0 13.7-0.2 20.5-0.5 224.3-10 418-203.9 427.9-428.2 4.9-114.7-32.9-220.1-98.9-302z" fill="#B08FEF" /></svg>