<?xml version="1.0" standalone="no"?><!DOCTYPE svg PUBLIC "-//W3C//DTD SVG 1.1//EN" "http://www.w3.org/Graphics/SVG/1.1/DTD/svg11.dtd"><svg class="icon" width="16px" height="16.00px" viewBox="0 0 1024 1024" version="1.1" xmlns="http://www.w3.org/2000/svg"><path fill="#333333" d="M555.7553691864015 518.0430812835693c-24.1823673248291-10.243806838989258-46.07975006103515 0.5453681945800781-56.134300231933594 12.246065139770506-10.052232742309569 11.700696945190431-14.887933731079098 36.440792083740234-25.117063522338867 60.26318550109865-10.229129791259767 23.823938369750977-46.713953018188484 70.20881652832033-46.713953018188484 70.20881652832033s42.05746650695801-2.160615921020508 64.27001953125-7.094421386718748c40.60521125793456-9.023294448852537 69.26794052124023-30.342864990234375 79.40746307373048-48.10209274291993s9.163112640380861-40.338706970214844 9.163112640380861-40.338706970214844 2.899103164672852-35.427303314208984-24.87527847290039-47.18284606933593zM591.5225620269775 430.8838195800781l66.13168716430664 57.75186538696289-65.62648773193361 49.608421325683594-42.479238510131836-42.21350669860839zM882.3250885009766 146.13518905639654c-14.024305343627933-10.553569793701174-146.20116233825684 104.2433452606201-175.12807846069336 134.20460700988767-34.9530029296875 36.200551986694336-111.68460845947267 138.75603675842285-111.68460845947267 138.75603675842285l72.60890007019044 61.57793998718263s75.47555923461915-68.1748867034912 125.70196151733398-138.31572532653811c44.9820613861084-62.82548904418945 102.52690315246582-185.66851615905762 88.50259780883789-196.22285842895508zM136.6561336517334 694.7686405181884h748.8631439208983v185.65692901611328H136.6561336517334v-185.65692901611328zM136.6561336517334 512H402.63282012939453v153.70113372802734H136.6561336517334V512z" /></svg>