<?xml version="1.0" standalone="no"?><!DOCTYPE svg PUBLIC "-//W3C//DTD SVG 1.1//EN" "http://www.w3.org/Graphics/SVG/1.1/DTD/svg11.dtd"><svg class="icon" width="32px" height="32.00px" viewBox="0 0 1024 1024" version="1.1" xmlns="http://www.w3.org/2000/svg"><path d="M512 0c282.76736 0 512 229.23264 512 512s-229.23264 512-512 512S0 794.76736 0 512 229.23264 0 512 0z" fill="#F4F0D3" /><path d="M512 184.32c180.97152 0 327.68 146.70848 327.68 327.68 0 180.98176-146.70848 327.68-327.68 327.68S184.32 692.98176 184.32 512c0-180.97152 146.70848-327.68 327.68-327.68z" fill="#D58953" /><path d="M512 276.48c130.06848 0 235.52 105.44128 235.52 235.52 0 130.06848-105.45152 235.52-235.52 235.52S276.48 642.06848 276.48 512c0-130.07872 105.45152-235.52 235.52-235.52z" fill="#CA824F" /><path d="M713.55392 310.24128c71.87456 71.99744 99.1232 183.02976 78.73536 283.81184 35.47136-101.888 14.00832-217.82528-65.30048-297.27744s-195.06176-100.93568-296.76544-65.41312c100.608-20.39808 211.456 6.89152 283.33056 78.87872z" fill="#D99565" /><path d="M430.08 389.12a40.96 40.96 0 1 0 0 81.92 40.96 40.96 0 0 0 0-81.92z m163.84 81.92a40.96 40.96 0 1 0 0-81.92 40.96 40.96 0 0 0 0 81.92z m0 81.92a40.96 40.96 0 1 0 0 81.92 40.96 40.96 0 0 0 0-81.92z m-163.84 0a40.96 40.96 0 1 0 0 81.92 40.96 40.96 0 0 0 0-81.92z" fill="#A2683F" /><path d="M598.17984 567.79776l-141.9264-141.93664a21.26848 21.26848 0 0 0-30.07488 30.07488l141.9264 141.9264a21.26848 21.26848 0 0 0 30.07488-30.06464z" fill="#F4F0D3" /><path d="M517.70368 547.46112l-41.17504-41.17504 30.07488-30.07488 41.17504 41.17504z" fill="#CBC8AF" /><path d="M426.1376 567.79776l141.9264-141.93664a21.26848 21.26848 0 0 1 30.07488 30.07488l-141.9264 141.9264a21.26848 21.26848 0 0 1-30.07488-30.06464z" fill="#F4F0D3" /><path d="M532.48 727.04c-130.06848 0-235.52-105.45152-235.52-235.52a234.55744 234.55744 0 0 1 59.09504-155.94496C307.27168 378.7264 276.48 441.7536 276.48 512c0 130.06848 105.45152 235.52 235.52 235.52 70.2464 0 133.2736-30.79168 176.42496-79.57504A234.60864 234.60864 0 0 1 532.48 727.04z" fill="#BA7849" /><path d="M512 839.68c-180.97152 0-327.68-146.69824-327.68-327.68a326.49216 326.49216 0 0 1 85.97504-221.22496C204.88192 350.68928 163.84 436.7872 163.84 532.48c0 180.98176 146.70848 327.68 327.68 327.68 95.70304 0 181.79072-41.04192 241.70496-106.45504C674.9184 807.08608 597.27872 839.68 512 839.68z" fill="#DBD8BD" /></svg>