<?xml version="1.0" standalone="no"?><!DOCTYPE svg PUBLIC "-//W3C//DTD SVG 1.1//EN" "http://www.w3.org/Graphics/SVG/1.1/DTD/svg11.dtd"><svg class="icon" width="200px" height="200.00px" viewBox="0 0 1024 1024" version="1.1" xmlns="http://www.w3.org/2000/svg"><path d="M512 512m-512 0a512 512 0 1 0 1024 0 512 512 0 1 0-1024 0Z" fill="#A7FCD0" /><path d="M514.4 512m-373.6 0a373.6 373.6 0 1 0 747.2 0 373.6 373.6 0 1 0-747.2 0Z" fill="#AD5114" /><path d="M514.4 512m-256 0a256 256 0 1 0 512 0 256 256 0 1 0-512 0Z" fill="#AD5114" /><path d="M436 446.4m-41.6 0a41.6 41.6 0 1 0 83.2 0 41.6 41.6 0 1 0-83.2 0Z" fill="#A7FCD0" /><path d="M514.4 824c-196 0-356-151.2-372-342.4-0.8 10.4-1.6 20-1.6 30.4 0 206.4 167.2 373.6 373.6 373.6 206.4 0 373.6-167.2 373.6-373.6 0-10.4-0.8-20.8-1.6-30.4-16 192-176 342.4-372 342.4z" fill="#993F0D" /><path d="M514.4 296c134.4 0 244.8 104 255.2 236 0.8-6.4 0.8-13.6 0.8-20 0-141.6-114.4-256-256-256s-256 114.4-256 256c0 6.4 0 13.6 0.8 20C269.6 400 380 296 514.4 296z" fill="#993F0D" /><path d="M595.2 446.4m-41.6 0a41.6 41.6 0 1 0 83.2 0 41.6 41.6 0 1 0-83.2 0Z" fill="#A7FCD0" /><path d="M436 598.4m-41.6 0a41.6 41.6 0 1 0 83.2 0 41.6 41.6 0 1 0-83.2 0Z" fill="#A7FCD0" /><path d="M595.2 598.4m-41.6 0a41.6 41.6 0 1 0 83.2 0 41.6 41.6 0 1 0-83.2 0Z" fill="#A7FCD0" /><path d="M432 496c-26.4 0-48-21.6-48-48s21.6-48 48-48 48 21.6 48 48-21.6 48-48 48z m0-80.8c-17.6 0-32.8 14.4-32.8 32.8s14.4 32.8 32.8 32.8c17.6 0 32.8-14.4 32.8-32.8s-15.2-32.8-32.8-32.8zM432 648c-26.4 0-48-21.6-48-48s21.6-48 48-48 48 21.6 48 48-21.6 48-48 48z m0-80.8c-17.6 0-32.8 14.4-32.8 32.8s14.4 32.8 32.8 32.8c17.6 0 32.8-14.4 32.8-32.8s-15.2-32.8-32.8-32.8zM600 496c-26.4 0-48-21.6-48-48s21.6-48 48-48 48 21.6 48 48-21.6 48-48 48z m0-80.8c-17.6 0-32.8 14.4-32.8 32.8s14.4 32.8 32.8 32.8c17.6 0 32.8-14.4 32.8-32.8s-15.2-32.8-32.8-32.8zM600 648c-26.4 0-48-21.6-48-48s21.6-48 48-48 48 21.6 48 48-21.6 48-48 48z m0-80.8c-17.6 0-32.8 14.4-32.8 32.8s14.4 32.8 32.8 32.8c17.6 0 32.8-14.4 32.8-32.8s-15.2-32.8-32.8-32.8z" fill="#663210" /><path d="M587.2 627.2c-8 0-16-3.2-22.4-9.6L421.6 474.4c-12.8-12.8-12.8-32.8 0-45.6 12.8-12.8 32.8-12.8 45.6 0l143.2 143.2c12.8 12.8 12.8 32.8 0 45.6-7.2 6.4-15.2 9.6-23.2 9.6z" fill="#EAEAEA" /><path d="M444 627.2c-8 0-16-3.2-22.4-9.6-12.8-12.8-12.8-32.8 0-45.6l143.2-143.2c12.8-12.8 32.8-12.8 45.6 0 12.8 12.8 12.8 32.8 0 45.6l-144 143.2c-6.4 6.4-14.4 9.6-22.4 9.6z" fill="#EAEAEA" /><path d="M516 896C306.4 896 136 724 136 512s170.4-384 380-384S896 300 896 512s-170.4 384-380 384z m0-752C315.2 144 152 308.8 152 512s163.2 368 364 368S880 715.2 880 512 716.8 144 516 144z" fill="#663210" /><path d="M513.6 776c-32.8 0-64-5.6-94.4-17.6-4-1.6-6.4-6.4-4.8-10.4 1.6-4 6.4-6.4 10.4-4.8 28 11.2 58.4 16.8 88.8 16.8C649.6 760 760 648.8 760 512c0-33.6-6.4-65.6-19.2-96.8-1.6-4 0-8.8 4-10.4 4-1.6 8.8 0 10.4 4C768.8 441.6 776 476.8 776 512c0 145.6-117.6 264-262.4 264zM295.2 655.2c-2.4 0-5.6-1.6-7.2-4-26.4-41.6-40-90.4-40-139.2 0-145.6 119.2-264 265.6-264 66.4 0 129.6 24 178.4 68.8 3.2 3.2 3.2 8 0.8 11.2-3.2 3.2-8 3.2-11.2 0.8-45.6-41.6-105.6-64.8-168-64.8C376 264 264 375.2 264 512c0 46.4 12.8 92 37.6 131.2 2.4 4 1.6 8.8-2.4 11.2-1.6 0.8-3.2 0.8-4 0.8z" fill="#663210" /><path d="M587.2 627.2c-8 0-16-3.2-22.4-9.6L421.6 474.4c-12.8-12.8-12.8-32.8 0-45.6 12.8-12.8 32.8-12.8 45.6 0l143.2 143.2c12.8 12.8 12.8 32.8 0 45.6-7.2 6.4-15.2 9.6-23.2 9.6z" fill="#EAEAEA" /><path d="M609.6 588c-6.4 6.4-14.4 9.6-22.4 9.6-8 0-16-3.2-22.4-9.6L421.6 445.6c-2.4-2.4-4-4.8-5.6-8-6.4 12-4.8 27.2 5.6 37.6l143.2 143.2c6.4 6.4 14.4 9.6 22.4 9.6 8 0 16-3.2 22.4-9.6 10.4-10.4 12-25.6 5.6-37.6-1.6 2.4-3.2 5.6-5.6 7.2z" fill="#D4D6D6" /><path d="M444 627.2c-8 0-16-3.2-22.4-9.6-12.8-12.8-12.8-32.8 0-45.6l143.2-143.2c12.8-12.8 32.8-12.8 45.6 0 12.8 12.8 12.8 32.8 0 45.6l-144 143.2c-6.4 6.4-14.4 9.6-22.4 9.6z" fill="#EAEAEA" /><path d="M609.6 445.6L466.4 588c-6.4 6.4-14.4 9.6-22.4 9.6-8 0-16-3.2-22.4-9.6-2.4-2.4-4-4.8-5.6-8-6.4 12-4.8 27.2 5.6 37.6 6.4 6.4 14.4 9.6 22.4 9.6 8 0 16-3.2 22.4-9.6l143.2-143.2c10.4-10.4 12-25.6 5.6-37.6-1.6 3.2-3.2 6.4-5.6 8.8z" fill="#D4D6D6" /><path d="M716 787.2c-2.4 0-4.8-0.8-6.4-3.2-2.4-3.2-1.6-8.8 1.6-11.2C793.6 710.4 840 615.2 840 512c0-135.2-84-258.4-209.6-306.4-4-1.6-6.4-6.4-4.8-10.4 1.6-4 6.4-6.4 10.4-4.8C767.2 241.6 856 370.4 856 512c0 108-48.8 208-135.2 273.6-0.8 0.8-3.2 1.6-4.8 1.6zM392 208c-3.2 0-6.4-1.6-7.2-4.8-1.6-4 0.8-8.8 4.8-10.4 40-16 81.6-23.2 124.8-23.2 4.8 0 8 3.2 8 8s-3.2 8-8 8c-40.8 0-81.6 7.2-119.2 22.4-0.8-0.8-2.4 0-3.2 0zM360 674.4c-2.4 0-4-0.8-5.6-2.4C312 629.6 288 572.8 288 512c0-4.8 3.2-8 8-8s8 3.2 8 8c0 56 21.6 108.8 61.6 148.8 3.2 3.2 3.2 8 0 11.2-1.6 1.6-3.2 2.4-5.6 2.4zM514.4 736c-45.6 0-88.8-12.8-126.4-36.8-4-2.4-4.8-7.2-2.4-10.4s7.2-4.8 11.2-2.4c34.4 22.4 75.2 34.4 117.6 34.4 4.8 0 8 3.2 8 8 0 4-4 7.2-8 7.2z" fill="#FFFFFF" /><path d="M456 574.4c-2.4 0-4-0.8-5.6-2.4-3.2-3.2-3.2-8 0-11.2l114.4-116c3.2-3.2 8-3.2 11.2 0 3.2 3.2 3.2 8 0 11.2L461.6 572c-1.6 1.6-3.2 2.4-5.6 2.4zM477.6 478.4c-1.6 0-4-0.8-5.6-1.6l-32-28c-3.2-3.2-4-8-0.8-11.2 3.2-3.2 8-4 11.2-0.8l32 28c3.2 3.2 4 8 0.8 11.2-0.8 0.8-3.2 2.4-5.6 2.4zM580 577.6c-1.6 0-4-0.8-5.6-2.4l-20-17.6c-3.2-3.2-3.2-8-0.8-11.2 3.2-3.2 8-3.2 11.2-0.8l20 17.6c3.2 3.2 3.2 8 0.8 11.2-1.6 2.4-3.2 3.2-5.6 3.2zM368 120c-17.6 0-32-14.4-32-32s14.4-32 32-32 32 14.4 32 32-14.4 32-32 32z m0-48.8c-9.6 0-16.8 8-16.8 16.8 0 9.6 8 16.8 16.8 16.8 9.6 0 16.8-8 16.8-16.8 0-9.6-7.2-16.8-16.8-16.8zM936 400c-17.6 0-32-14.4-32-32s14.4-32 32-32 32 14.4 32 32-14.4 32-32 32z m0-48.8c-9.6 0-16.8 8-16.8 16.8 0 9.6 8 16.8 16.8 16.8 9.6 0 16.8-8 16.8-16.8 0-9.6-7.2-16.8-16.8-16.8zM610.4 952c0-3.2-3.2-6.4-8-7.2l-15.2-2.4c-4-0.8-8.8-4.8-8.8-8.8l-2.4-15.2c-0.8-4-4-8-7.2-8s-6.4 3.2-7.2 8l-2.4 15.2c-0.8 4-4.8 8.8-8.8 8.8l-15.2 2.4c-4 0.8-8 4-8 7.2s3.2 6.4 8 7.2l15.2 2.4c4 0.8 8.8 4.8 8.8 8.8l2.4 15.2c0.8 4 4 8 7.2 8s6.4-3.2 6.4-8l2.4-16.8c0.8-4 4.8-8 8.8-8.8l14.4-0.8c6.4-1.6 9.6-4 9.6-7.2zM106.4 460c0-3.2-3.2-6.4-8-7.2l-15.2-2.4c-4-0.8-8.8-4.8-8.8-8.8L72 426.4c-0.8-4-4-8-7.2-8s-6.4 3.2-7.2 8l-2.4 15.2c-0.8 4-4.8 8.8-8.8 8.8l-15.2 2.4c-4 0.8-8 4-8 7.2s3.2 6.4 8 7.2l15.2 2.4c4 0.8 8.8 4.8 8.8 8.8l2.4 15.2c0.8 4 4 8 7.2 8s6.4-3.2 6.4-8l2.4-16.8c0.8-4 4.8-8 8.8-8.8l14.4-0.8c6.4-1.6 9.6-4 9.6-7.2zM697.6 195.2c0-3.2-3.2-6.4-8-7.2l-38.4-6.4c-4-0.8-8.8-4.8-9.6-9.6l-6.4-38.4c-0.8-4-4-8-7.2-8s-6.4 3.2-7.2 8l-6.4 38.4c-0.8 4-4.8 8.8-9.6 9.6l-38.4 6.4c-4 0.8-8 4-8 7.2s3.2 6.4 8 7.2l37.6 4.8c4 0.8 8.8 4.8 9.6 8.8l7.2 40c0.8 4 4 8 7.2 8s6.4-3.2 7.2-8l7.2-40.8c0.8-4 4.8-8 9.6-8.8l37.6-4.8c4.8 0 8-3.2 8-6.4z" fill="#FFFFFF" /></svg>