<?xml version="1.0" standalone="no"?><!DOCTYPE svg PUBLIC "-//W3C//DTD SVG 1.1//EN" "http://www.w3.org/Graphics/SVG/1.1/DTD/svg11.dtd"><svg class="icon" width="200px" height="200.00px" viewBox="0 0 1024 1024" version="1.1" xmlns="http://www.w3.org/2000/svg"><path fill="#333333" d="M121.068891 340.811106 251.813654 116.313076 772.988618 116.313076l133.519969 224.49803L121.068891 340.811106 121.068891 340.811106 121.068891 340.811106zM905.694035 453.060633c-0.419556 38.756699-45.068452 56.152904-84.188424 56.127322-45.094034-0.029676-85.730547-27.335578-85.730547-56.127322l-26.51591 0c0 28.314883-50.262754 56.127322-93.532233 56.127322-41.507346 0-89.772606-28.67918-89.772606-56.127322l-27.195386 0c0 28.314883-49.107441 56.127322-90.584088 56.127322-43.269479 0-92.662423-19.922748-92.662423-56.127322l-26.575262 0c0 28.231995-43.328831 56.998155-84.945671 56.998155-42.203194 0-84.046185-18.241456-84.046185-56.998155l0-56.125275 785.747711 0L905.693012 453.060633 905.694035 453.060633 905.694035 453.060633zM877.62884 733.685985l-729.535455 0-0.081864-168.371732 55.113225 0c30.141484 0 77.927837-26.885324 98.16474-68.025303 22.697955 39.989783 65.073064 68.025303 105.540731 68.025303 42.739407 0 89.797166-25.426089 105.514125-62.189388 15.743566 35.894512 61.820997 62.189388 103.69264 62.189388 41.530882 0 84.551698-30.538527 106.322537-72.235185 25.454742 42.090631 45.997614 72.235185 99.147114 72.235185 8.218172 0 48.942689 1.343601 56.122205 0L877.62884 733.685985 877.62884 733.685985 877.62884 733.685985zM877.62884 845.935512c0 30.978549-29.463032 56.127322-61.421908 56.127322L208.511429 902.062833c-31.960922 0-60.418045-25.14775-60.418045-56.127322l0-56.123228 729.535455 0L877.62884 845.935512 877.62884 845.935512 877.62884 845.935512zM797.766954 60.187801 226.948337 60.187801 63.824119 340.811106l0 112.249527c0 29.887704 10.746762 62.550615 28.088732 84.190471l0.845251 308.684408c0 61.991889 51.828412 112.248504 115.754351 112.248504l607.694479 0c63.927985 0 117.5523-50.256614 117.5523-112.248504L933.759231 537.251104c19.641339-23.124673 28.059056-46.865377 28.059056-84.190471L961.818287 340.811106 797.766954 60.187801 797.766954 60.187801 797.766954 60.187801zM797.766954 60.187801" /></svg>