<?xml version="1.0" standalone="no"?><!DOCTYPE svg PUBLIC "-//W3C//DTD SVG 1.1//EN" "http://www.w3.org/Graphics/SVG/1.1/DTD/svg11.dtd"><svg class="icon" width="200px" height="200.00px" viewBox="0 0 1024 1024" version="1.1" xmlns="http://www.w3.org/2000/svg"><path d="M827.1 749.9l-77.8 77.8c-15.6 15.6-40.9 15.6-56.6 0l-495-495c-15.6-15.6-15.6-40.9 0-56.6l77.8-77.8c15.6-15.6 40.9-15.6 56.6 0l495 495c15.6 15.7 15.6 41 0 56.6z" fill="#FFE91A" /><path d="M721 847.4c-12.3 0-24.6-4.7-33.9-14l-495-495c-18.7-18.7-18.7-49.2 0-67.9l77.8-77.8c9.1-9.1 21.1-14.1 33.9-14.1s24.9 5 33.9 14.1l495 495c18.7 18.7 18.7 49.2 0 67.9l-77.8 77.8c-9.3 9.3-21.6 14-33.9 14zM303.8 194.7c-8.5 0-16.6 3.3-22.6 9.4l-77.8 77.8c-12.5 12.5-12.5 32.8 0 45.3l495 495c12.5 12.5 32.8 12.5 45.3 0l77.8-77.8c12.5-12.5 12.5-32.8 0-45.3l-495-495c-6.1-6.1-14.1-9.4-22.7-9.4z" fill="#4F0F00" /><path d="M476 408.3c-2 0-4.1-0.8-5.7-2.3-3.1-3.1-3.1-8.2 0-11.3l28.3-28.3c3.1-3.1 8.2-3.1 11.3 0 3.1 3.1 3.1 8.2 0 11.3L481.6 406c-1.5 1.5-3.6 2.3-5.6 2.3z" fill="#4F0F00" /><path d="M278.8 279.5m-24 0a24 24 0 1 0 48 0 24 24 0 1 0-48 0Z" fill="#FC5B5B" /><path d="M278.8 311.5c-8.2 0-16.4-3.1-22.6-9.4-12.5-12.5-12.5-32.8 0-45.3s32.8-12.5 45.3 0 12.5 32.8 0 45.3c-6.3 6.3-14.5 9.4-22.7 9.4z m0-48c-4.1 0-8.2 1.6-11.3 4.7-6.2 6.2-6.2 16.4 0 22.6s16.4 6.2 22.6 0 6.2-16.4 0-22.6c-3.1-3.1-7.2-4.7-11.3-4.7z" fill="#4F0F00" /><path d="M745.6 746.2m-24 0a24 24 0 1 0 48 0 24 24 0 1 0-48 0Z" fill="#FC5B5B" /><path d="M745.6 778.2c-8.2 0-16.4-3.1-22.6-9.4-12.5-12.5-12.5-32.8 0-45.3s32.8-12.5 45.3 0c6 6 9.4 14.1 9.4 22.6s-3.3 16.6-9.4 22.6c-6.3 6.4-14.5 9.5-22.7 9.5z m0-47.9c-4.1 0-8.2 1.6-11.3 4.7-6.2 6.2-6.2 16.4 0 22.6 6.2 6.2 16.4 6.2 22.6 0 6.2-6.2 6.2-16.4 0-22.6-3.1-3.2-7.2-4.7-11.3-4.7zM433.1 365.3c-2 0-4.1-0.8-5.7-2.3-3.1-3.1-3.1-8.2 0-11.3l28.3-28.3c3.1-3.1 8.2-3.1 11.3 0 3.1 3.1 3.1 8.2 0 11.3L438.7 363c-1.5 1.6-3.6 2.3-5.6 2.3zM390.1 322.4c-2 0-4.1-0.8-5.7-2.3-3.1-3.1-3.1-8.2 0-11.3l28.3-28.3c3.1-3.1 8.2-3.1 11.3 0 3.1 3.1 3.1 8.2 0 11.3l-28.3 28.3c-1.5 1.5-3.5 2.3-5.6 2.3zM347.2 279.5c-2 0-4.1-0.8-5.7-2.3-3.1-3.1-3.1-8.2 0-11.3l28.3-28.3c3.1-3.1 8.2-3.1 11.3 0 3.1 3.1 3.1 8.2 0 11.3l-28.3 28.3c-1.5 1.5-3.5 2.3-5.6 2.3zM752.7 685c-2 0-4.1-0.8-5.7-2.3-3.1-3.1-3.1-8.2 0-11.3l28.3-28.3c3.1-3.1 8.2-3.1 11.3 0 3.1 3.1 3.1 8.2 0 11.3l-28.3 28.3c-1.5 1.5-3.5 2.3-5.6 2.3z" fill="#4F0F00" /><path d="M709.8 642.1c-2 0-4.1-0.8-5.7-2.3-3.1-3.1-3.1-8.2 0-11.3l28.3-28.3c3.1-3.1 8.2-3.1 11.3 0 3.1 3.1 3.1 8.2 0 11.3l-28.3 28.3c-1.5 1.5-3.5 2.3-5.6 2.3z" fill="#4F0F00" /><path d="M666.9 599.2c-2 0-4.1-0.8-5.7-2.3-3.1-3.1-3.1-8.2 0-11.3l28.3-28.3c3.1-3.1 8.2-3.1 11.3 0 3.1 3.1 3.1 8.2 0 11.3l-28.3 28.3c-1.5 1.5-3.6 2.3-5.6 2.3z" fill="#4F0F00" /><path d="M624 556.2c-2 0-4.1-0.8-5.7-2.3-3.1-3.1-3.1-8.2 0-11.3l28.3-28.3c3.1-3.1 8.2-3.1 11.3 0 3.1 3.1 3.1 8.2 0 11.3l-28.3 28.3c-1.6 1.6-3.6 2.3-5.6 2.3z" fill="#4F0F00" /><path d="M217.4 808.1l161.2-60.8-100.4-100.5z" fill="#FFE91A" /><path d="M217.4 816.1c-2.1 0-4.1-0.8-5.7-2.3-2.2-2.2-2.9-5.5-1.8-8.5L270.7 644c1-2.5 3.1-4.4 5.8-5 2.7-0.6 5.4 0.2 7.3 2.2l100.4 100.4c1.9 1.9 2.7 4.7 2.2 7.3-0.6 2.7-2.5 4.8-5 5.8l-161.2 60.8c-0.9 0.4-1.9 0.6-2.8 0.6z m63.9-154.8l-50.2 133.1 133.1-50.2-82.9-82.9z" fill="#4F0F00" /><path d="M654.232 267.982l103.236 103.236-374.763 374.763L279.47 642.745z" fill="#FFC41D" /><path d="M382.7 754c-2 0-4.1-0.8-5.7-2.3L273.8 648.4c-3.1-3.1-3.1-8.2 0-11.3l374.8-374.8c1.5-1.5 3.5-2.3 5.7-2.3s4.2 0.8 5.7 2.3l103.2 103.2c3.1 3.1 3.1 8.2 0 11.3L388.4 751.6c-1.6 1.6-3.6 2.4-5.7 2.4z m-91.9-111.3l91.9 91.9 363.5-363.5-91.9-91.9-363.5 363.5z" fill="#4F0F00" /><path d="M656.577 270.3l38.183 38.184-374.763 374.763-38.183-38.183z" fill="#FFE91A" /><path d="M320 691.2c-2 0-4.1-0.8-5.7-2.3l-38.2-38.2c-1.5-1.5-2.3-3.5-2.3-5.7s0.8-4.2 2.3-5.7L651 264.6c3.1-3.1 8.2-3.1 11.3 0l38.2 38.2c3.1 3.1 3.1 8.2 0 11.3L325.7 688.9c-1.6 1.6-3.6 2.3-5.7 2.3z m-26.8-46.1l26.9 26.9 363.5-363.5-26.9-26.9-363.5 363.5z" fill="#4F0F00" /><path d="M795.7 276.4L749 229.8c-15.6-15.6-40.9-15.6-56.6 0L654.2 268l103.2 103.2 38.2-38.2c15.7-15.6 15.7-41 0.1-56.6z" fill="#FFC41D" /><path d="M757.5 379.2c-2.1 0-4.2-0.8-5.7-2.3L648.6 273.6c-3.1-3.1-3.1-8.2 0-11.3l38.2-38.2c9.1-9.1 21.1-14.1 33.9-14.1s24.9 5 33.9 14.1l46.7 46.7c9.1 9.1 14.1 21.1 14.1 33.9s-5 24.9-14.1 33.9l-38.2 38.2c-1.4 1.5-3.5 2.4-5.6 2.4z m-91.9-111.3l91.9 91.9 32.5-32.5c6-6 9.4-14.1 9.4-22.6 0-8.5-3.3-16.6-9.4-22.6l-46.7-46.7c-6-6-14.1-9.4-22.6-9.4s-16.6 3.3-22.6 9.4l-32.5 32.5z" fill="#4F0F00" /><path d="M653.82 268.42l103.236 103.237-32.526 32.527-103.237-103.237z" fill="#FFE91A" /><path d="M724.5 412.2c-2 0-4.1-0.8-5.7-2.3L615.6 306.6c-1.5-1.5-2.3-3.5-2.3-5.7s0.8-4.2 2.3-5.7l32.5-32.5c3.1-3.1 8.2-3.1 11.3 0L762.7 366c1.5 1.5 2.3 3.5 2.3 5.7s-0.8 4.2-2.3 5.7l-32.5 32.5c-1.6 1.5-3.6 2.3-5.7 2.3z m-91.9-111.3l91.9 91.9 21.2-21.2-91.9-91.9-21.2 21.2z" fill="#4F0F00" /><path d="M217.4 808.1l55.5-22.2-33.3-33.3z" fill="#FC5B5B" /><path d="M217.4 816.1c-2.1 0-4.1-0.8-5.7-2.3-2.3-2.3-3-5.7-1.8-8.6l22.2-55.5c1-2.5 3.2-4.3 5.8-4.9 2.6-0.5 5.4 0.3 7.3 2.2l33.3 33.3c1.9 1.9 2.7 4.6 2.2 7.3-0.5 2.6-2.4 4.8-4.9 5.8l-55.5 22.2c-0.9 0.3-1.9 0.5-2.9 0.5z m25.1-49.3l-10.8 26.9 26.9-10.8-16.1-16.1z" fill="#4F0F00" /></svg>