<?xml version="1.0" standalone="no"?><!DOCTYPE svg PUBLIC "-//W3C//DTD SVG 1.1//EN" "http://www.w3.org/Graphics/SVG/1.1/DTD/svg11.dtd"><svg class="icon" width="200px" height="200.00px" viewBox="0 0 1024 1024" version="1.1" xmlns="http://www.w3.org/2000/svg"><path d="M836.029 694.334h-648c-19.882 0-36-16.118-36-36v-408c0-19.882 16.118-36 36-36h648c19.882 0 36 16.118 36 36v408c0 19.882-16.118 36-36 36z" fill="#FFC912" /><path d="M212.029 658.334v-408c0-19.882 16.118-36 36-36h-60c-19.882 0-36 16.118-36 36v408c0 19.882 16.118 36 36 36h60c-19.882 0-36-16.118-36-36z" fill="#FFB408" /><path d="M339.881 832.451v50h-98s2-46 98-50z" fill="#FFC912" /><path d="M346.877 825.314V702.455c0-5.522-4.478-10-10-10s-10 4.478-10 10v120.811c-91.666 7.903-94.893 56.594-94.986 58.752a9.997 9.997 0 0 0 9.991 10.435h98c5.522 0 10-4.478 10-10v-50a9.998 9.998 0 0 0-3.005-7.139z m-90.458 47.138c7.176-10.379 25.556-25.304 72.267-29.273 0.355 0.507 0.754 0.98 1.195 1.412v27.861h-73.462z" fill="#723703" /><path d="M684.177 832.451v50h98s-2-46-98-50z" fill="#FFC912" /><path d="M697.182 823.266V702.455c0-5.522-4.478-10-10-10s-10 4.478-10 10v122.858a9.993 9.993 0 0 0-3.005 7.139v50c0 5.522 4.478 10 10 10h98a9.999 9.999 0 0 0 9.991-10.435c-0.095-2.158-3.322-50.848-94.986-58.751z m-3.005 49.186v-27.86c0.441-0.432 0.839-0.905 1.195-1.412 37.179 3.179 56.082 13.345 65.516 21.727 2.955 2.625 5.142 5.198 6.758 7.545h-73.469z" fill="#723703" /><path d="M244.271 303.095h535.516V620.95H244.271z" fill="#FFFFFF" /><path d="M399.521 201.427m-60 0a60 60 0 1 0 120 0 60 60 0 1 0-120 0Z" fill="#FFFFFF" /><path d="M399.521 271.427c-38.598 0-70-31.402-70-70s31.402-70 70-70 70 31.402 70 70-31.402 70-70 70z m0-120c-27.57 0-50 22.43-50 50s22.43 50 50 50 50-22.43 50-50-22.429-50-50-50z" fill="#723703" /><path d="M399.521 201.427m-16 0a16 16 0 1 0 32 0 16 16 0 1 0-32 0Z" fill="#723703" /><path d="M624.536 201.427m-60 0a60 60 0 1 0 120 0 60 60 0 1 0-120 0Z" fill="#FFFFFF" /><path d="M624.536 271.427c-38.598 0-70-31.402-70-70s31.402-70 70-70 70 31.402 70 70-31.402 70-70 70z m0-120c-27.57 0-50 22.43-50 50s22.43 50 50 50 50-22.43 50-50-22.43-50-50-50z" fill="#723703" /><path d="M624.536 201.427m-16 0a16 16 0 1 0 32 0 16 16 0 1 0-32 0Z" fill="#723703" /><path d="M254.067 558.853c37.791-36.023 102.074-129.013 137.938-159.016 35.864-30.003 84.24-20.752 146.214 45.004 113.109 120.012 333.81 135.013 333.81 135.013v105.488c0 19.882-16.118 36-36 36h-648c-19.882 0-36-16.118-36-36v-75.485c0 0.001 37.59 10.429 102.038-51.004z" fill="#AEE2FF" /><path d="M639.241 386.336m-40.002 0a40.002 40.002 0 1 0 80.004 0 40.002 40.002 0 1 0-80.004 0Z" fill="#FC7070" /><path d="M212.029 685.343v-75.485s37.59 10.428 102.038-51.005c37.791-36.023 102.074-129.013 137.938-159.016 4.598-3.847 9.403-7.043 14.414-9.563-29.072-11.949-53.809-7.675-74.414 9.563-35.864 30.003-100.147 122.993-137.938 159.016-64.448 61.433-102.038 51.005-102.038 51.005v75.485c0 19.882 16.118 36 36 36h60c-19.882 0-36-16.117-36-36z" fill="#64D0FF" /><path d="M788.787 629.95H235.271V294.095h553.516V629.95z m-535.516-18h517.516V312.095H253.271V611.95z" fill="#FFFFFF" /><path d="M619.239 386.336c0-18.639 12.749-34.3 30.002-38.74a40.055 40.055 0 0 0-10-1.26c-22.093 0-40.002 17.909-40.002 40s17.91 40 40.002 40c3.453 0 6.804-0.438 10-1.26-17.253-4.44-30.002-20.101-30.002-38.74z" fill="#EA4F3B" /><path d="M670.513 497.347m-32 0a32 32 0 1 0 64 0 32 32 0 1 0-64 0Z" fill="#FFFFFF" /><path d="M873.573 366.688c-5.055-2.234-10.956 0.055-13.188 5.104-0.531 1.201-52.968 117.238-148.703 117.233-3.872-19.186-20.858-33.678-41.169-33.678-23.159 0-42 18.841-42 42s18.841 42 42 42c19.103 0 35.257-12.824 40.333-30.313 0.268 0.002 0.537 0.011 0.805 0.011 44.543 0 87.055-21.609 123.38-62.844 28.446-32.29 43.04-64.951 43.647-66.325 2.232-5.051-0.053-10.957-5.105-13.188z m-203.06 152.659c-12.131 0-22-9.869-22-22s9.869-22 22-22 22 9.869 22 22-9.87 22-22 22z" fill="#723703" /><path d="M352.045 497.847m-32 0a32 32 0 1 0 64 0 32 32 0 1 0-64 0Z" fill="#FFFFFF" /><path d="M352.045 455.847c-20.139 0-37.006 14.25-41.064 33.195-38.4-0.385-74.225-19.08-106.603-55.672-26.536-29.99-40.568-61.271-40.707-61.584-2.233-5.046-8.136-7.334-13.186-5.098-5.051 2.231-7.337 8.137-5.104 13.188 0.607 1.374 15.201 34.035 43.646 66.325 36.1 40.978 78.301 62.561 122.542 62.831 4.91 17.744 21.19 30.814 40.476 30.814 23.159 0 42-18.841 42-42s-18.841-41.999-42-41.999z m0 64c-12.131 0-22-9.869-22-22s9.869-22 22-22 22 9.869 22 22-9.869 22-22 22z" fill="#723703" /><path d="M824.634 636.854h-0.017a8 8 0 0 1-7.983-8.017l0.141-67.981a8 8 0 0 1 8-7.983h0.017a8 8 0 0 1 7.983 8.017l-0.141 67.981a8 8 0 0 1-8 7.983z" fill="#FFFFFF" /><path d="M824.635 691.863h-0.058a8 8 0 0 1-7.943-8.057l0.141-20a8 8 0 0 1 7.999-7.943h0.058a8 8 0 0 1 7.943 8.057l-0.141 20a8.002 8.002 0 0 1-7.999 7.943z" fill="#FFFFFF" /></svg>